<!DOCTYPE svg PUBLIC "-//W3C//DTD SVG 1.1//EN" "http://www.w3.org/Graphics/SVG/1.1/DTD/svg11.dtd">
<!-- Uploaded to: SVG Repo, www.svgrepo.com, Transformed by: SVG Repo Mixer Tools -->
<svg fill="#ffffff" width="800px" height="800px" viewBox="0 0 24.00 24.00" data-name="Layer 1" id="Layer_1" xmlns="http://www.w3.org/2000/svg">
<g id="SVGRepo_bgCarrier" stroke-width="0"/>
<g id="SVGRepo_tracerCarrier" stroke-linecap="round" stroke-linejoin="round"/>
<g id="SVGRepo_iconCarrier">
<title/>
<path d="M19.2,4H4.8A2.81,2.81,0,0,0,2,6.8V17.2A2.81,2.81,0,0,0,4.8,20H19.2A2.81,2.81,0,0,0,22,17.2V6.8A2.81,2.81,0,0,0,19.2,4ZM20,17.2a.8.8,0,0,1-.8.8H4.8a.8.8,0,0,1-.8-.8V6.8A.8.8,0,0,1,4.8,6H19.2a.8.8,0,0,1,.8.8ZM10,11A1.5,1.5,0,1,0,8.5,9.5,1.5,1.5,0,0,0,10,11ZM7,13.21V15h6V13.21a5.35,5.35,0,0,0-6,0Z"/>
</g>
</svg>